<svg width="16" height="16" viewBox="0 0 16 16" fill="none" xmlns="http://www.w3.org/2000/svg">
<path d="M5.49492 0.438679C3.84441 0.999777 2.42101 2.06476 1.43379 3.4772C0.446578 4.88964 -0.0524109 6.57508 0.0101178 8.28596C0.0726464 9.99685 0.693397 11.643 1.78119 12.9826C2.86899 14.3222 4.36649 15.2847 6.05373 15.7286C7.42162 16.0745 8.85477 16.0897 10.23 15.7729C11.4758 15.4987 12.6275 14.9121 13.5725 14.0706C14.556 13.1681 15.2699 12.0199 15.6374 10.7496C16.0367 9.36813 16.1078 7.91538 15.8452 6.50281H8.16379V9.6253H12.6123C12.5234 10.1233 12.3329 10.5986 12.0522 11.0228C11.7714 11.447 11.4063 11.8113 10.9785 12.094C10.4353 12.4462 9.82296 12.6832 9.18075 12.7895C8.53669 12.9069 7.87607 12.9069 7.23201 12.7895C6.57919 12.6574 5.96164 12.3934 5.41878 12.0143C4.54656 11.4092 3.89164 10.5497 3.54747 9.55827C3.19759 8.54828 3.19759 7.45337 3.54747 6.44337C3.79246 5.73542 4.19744 5.09084 4.7322 4.55774C5.34417 3.93646 6.11895 3.49237 6.97152 3.27418C7.82409 3.056 8.72152 3.07216 9.56533 3.32088C10.2245 3.51909 10.8274 3.86555 11.3257 4.33262C11.8272 3.84361 12.328 3.35334 12.8279 2.8618C13.086 2.59749 13.3673 2.34581 13.6215 2.07517C12.8608 1.38152 11.9679 0.841738 10.994 0.486737C9.22037 -0.14435 7.27973 -0.16131 5.49492 0.438679Z" fill="white"/>
<path d="M5.49418 0.438745C7.27884 -0.161653 9.21948 -0.145139 10.9932 0.485538C11.9673 0.84295 12.8598 1.38533 13.6195 2.08156C13.3614 2.3522 13.0891 2.60514 12.8258 2.86819C12.3251 3.35804 11.8248 3.84621 11.3249 4.33269C10.8266 3.86562 10.2238 3.51915 9.56459 3.32095C8.72105 3.07135 7.82365 3.05426 6.97085 3.27155C6.11806 3.48884 5.34281 3.93212 4.73017 4.55274C4.1954 5.08585 3.79042 5.73043 3.54544 6.43838L0.870117 4.40857C1.82772 2.54767 3.48575 1.12423 5.49418 0.438745Z" fill="#E33629"/>
<path d="M0.160025 6.41941C0.303715 5.72102 0.54245 5.04469 0.869831 4.40857L3.54515 6.44344C3.19527 7.45343 3.19527 8.54835 3.54515 9.55834C2.65381 10.2328 1.76203 10.9107 0.869831 11.5919C0.0505224 9.99379 -0.199352 8.17289 0.160025 6.41941Z" fill="#F8BD00"/>
<path d="M8.16268 6.50165H15.8441C16.1067 7.91422 16.0356 9.36697 15.6363 10.7484C15.2688 12.0188 14.5549 13.1669 13.5714 14.0695C12.708 13.4093 11.8408 12.7542 10.9774 12.0941C11.4054 11.8111 11.7708 11.4464 12.0515 11.0218C12.3323 10.5971 12.5226 10.1213 12.6112 9.62287H8.16268C8.16139 8.58331 8.16268 7.54248 8.16268 6.50165Z" fill="#587DBD"/>
<path d="M0.869141 11.592C1.76134 10.9175 2.65312 10.2396 3.54446 9.55835C3.88931 10.5501 4.54516 11.4097 5.41835 12.0144C5.9629 12.3917 6.58178 12.6536 7.23545 12.7833C7.87951 12.9007 8.54013 12.9007 9.18419 12.7833C9.8264 12.6769 10.4388 12.44 10.9819 12.0877C11.8453 12.7479 12.7126 13.403 13.5759 14.0631C12.6311 14.9051 11.4793 15.4921 10.2334 15.7667C8.8582 16.0835 7.42506 16.0683 6.05717 15.7224C4.9753 15.4393 3.96476 14.9403 3.0889 14.2566C2.16193 13.5353 1.40477 12.6264 0.869141 11.592Z" fill="#319F43"/>
</svg>
